<?xml version="1.0" encoding="utf-8"?>
<!-- Generator: Adobe Illustrator 16.0.3, SVG Export Plug-In . SVG Version: 6.00 Build 0)  -->
<!DOCTYPE svg PUBLIC "-//W3C//DTD SVG 1.1//EN" "http://www.w3.org/Graphics/SVG/1.1/DTD/svg11.dtd">
<svg version="1.1" id="Layer_1" xmlns="http://www.w3.org/2000/svg" xmlns:xlink="http://www.w3.org/1999/xlink" x="0px" y="0px"
	 width="30px" height="27.508px" viewBox="0 0 30 27.508" enable-background="new 0 0 30 27.508" xml:space="preserve">
<g id="icomoon-ignore">
	<line fill="#0059B2" stroke="#449FDB" x1="69" y1="11.001" x2="69" y2="11.001"/>
</g>
<path fill="#0059B2" d="M24.587,19.727l-8.994-7.709c0.419-0.787,0.657-1.686,0.657-2.639c0-3.106-2.518-5.625-5.625-5.625
	c-0.568,0-1.117,0.085-1.634,0.241l3.25,3.25c0.487,0.485,0.487,1.282,0,1.767l-1.981,1.983c-0.487,0.487-1.283,0.487-1.769,0
	l-3.25-3.25c-0.156,0.517-0.24,1.065-0.24,1.634c0,3.107,2.517,5.625,5.624,5.625c0.953,0,1.852-0.238,2.639-0.657l7.709,8.994
	c0.448,0.522,1.212,0.552,1.698,0.065l1.982-1.983C25.139,20.938,25.109,20.173,24.587,19.727L24.587,19.727z"/>
</svg>
