<?xml version="1.0" encoding="utf-8"?>
<!-- Generator: Adobe Illustrator 16.0.3, SVG Export Plug-In . SVG Version: 6.00 Build 0)  -->
<!DOCTYPE svg PUBLIC "-//W3C//DTD SVG 1.1//EN" "http://www.w3.org/Graphics/SVG/1.1/DTD/svg11.dtd">
<svg version="1.1" id="Layer_1" xmlns="http://www.w3.org/2000/svg" xmlns:xlink="http://www.w3.org/1999/xlink" x="0px" y="0px"
	 width="30px" height="27.508px" viewBox="0 0 30 27.508" enable-background="new 0 0 30 27.508" xml:space="preserve">
<path fill="#0059B2" d="M21.75,4.754H8.25C7.007,4.754,6,5.761,6,7.004v0.75h18v-0.75C24,5.761,22.993,4.754,21.75,4.754z
	 M17.819,3.254l0.331,2.367h-6.301l0.332-2.367H17.819z M18,1.754h-6c-0.62,0-1.195,0.501-1.282,1.114L10.28,6.007
	c-0.086,0.612,0.35,1.114,0.969,1.114h7.5c0.619,0,1.056-0.501,0.969-1.114l-0.438-3.139C19.194,2.255,18.617,1.754,18,1.754
	L18,1.754L18,1.754z M22.125,9.254H7.875c-0.824,0-1.438,0.672-1.363,1.494L7.738,24.26c0.076,0.821,0.813,1.494,1.637,1.494h11.25
	c0.824,0,1.561-0.673,1.637-1.494l1.227-13.512C23.564,9.926,22.949,9.254,22.125,9.254z M12,22.754H9.75L9,12.253H12V22.754z
	 M16.5,22.754h-3v-10.5h3V22.754z M20.25,22.754H18v-10.5h3L20.25,22.754z"/>
</svg>
